HIERARCHY
ROOT Hips
{
  OFFSET 0.382225 96.6805 0.598322
  CHANNELS 6 Xposition Yposition Zposition Zrotation Xrotation Yrotation
  JOINT Spine
  {
    OFFSET 10.8089 -0.851416 0
    CHANNELS 3 Zrotation Xrotation Yrotation
    JOINT Spine1
    {
      OFFSET 18.8753 3.80116 0
      CHANNELS 3 Zrotation Xrotation Yrotation
      JOINT Spine2
      {
        OFFSET 13.4073 0.420477 0
        CHANNELS 3 Zrotation Xrotation Yrotation
        JOINT LeftShoulder
        {
          OFFSET 11.8837 -2.73209 -3.78198
          CHANNELS 3 Zrotation Xrotation Yrotation
          JOINT LeftArm
          {
            OFFSET 15.7849 0 -2.35849e-005
            CHANNELS 3 Zrotation Xrotation Yrotation
            JOINT LeftForeArm
            {
              OFFSET 30.3399 0 0
              CHANNELS 3 Zrotation Xrotation Yrotation
              JOINT LeftHand
              {
                OFFSET 26.9751 0 2.45913e-005
                CHANNELS 3 Zrotation Xrotation Yrotation
                End Site
                {
                  OFFSET 8 0 0
                }
              }
            }
          }
        }
        JOINT RightShoulder
        {
          OFFSET 11.8838 -2.7321 3.782
          CHANNELS 3 Zrotation Xrotation Yrotation
          JOINT RightArm
          {
            OFFSET -15.7848 0 -1.07056e-005
            CHANNELS 3 Zrotation Xrotation Yrotation
            JOINT RightForeArm
            {
              OFFSET -30.34 1.02096e-005 -2.53607e-005
              CHANNELS 3 Zrotation Xrotation Yrotation
              JOINT RightHand
              {
                OFFSET -26.9752 2.07668e-005 0
                CHANNELS 3 Zrotation Xrotation Yrotation
                End Site
                {
                  OFFSET -8 0 0
                }
              }
            }
          }
        }
        JOINT Neck
        {
          OFFSET 16.5588 -0.355318 0
          CHANNELS 3 Zrotation Xrotation Yrotation
          JOINT Head
          {
            OFFSET 9.28361 0.364157 0
            CHANNELS 3 Zrotation Xrotation Yrotation
            End Site
            {
              OFFSET 0 0 0
            }
          }
        }
      }
    }
  }
  JOINT LeftUpLeg
  {
    OFFSET -1.44883 -0.531424 -9.00581
    CHANNELS 3 Zrotation Xrotation Yrotation
    JOINT LeftLeg
    {
      OFFSET -42.572 0.0788889 -0.011964
      CHANNELS 3 Zrotation Xrotation Yrotation
      JOINT LeftFoot
      {
        OFFSET -40.1967 0 0
        CHANNELS 3 Zrotation Xrotation Yrotation
				JOINT LeftToe
        {
          OFFSET -10.4538 -16.5779 0.0801563
          CHANNELS 3 Zrotation Xrotation Yrotation
          End Site
          {
            OFFSET -1.0 -1.0 0.0
          }
        }
      }
    }
  }
  JOINT RightUpLeg
  {
    OFFSET -1.44865 -0.531427 9.0058
    CHANNELS 3 Zrotation Xrotation Yrotation
    JOINT RightLeg
    {
      OFFSET 42.5723 -3.24776e-005 0
      CHANNELS 3 Zrotation Xrotation Yrotation
      JOINT RightFoot
      {
        OFFSET 40.1968 0 -1.14003e-005
        CHANNELS 3 Zrotation Xrotation Yrotation
				JOINT RightToe
        {
          OFFSET 10.4538 16.5778 -0.0801573
          CHANNELS 3 Zrotation Xrotation Yrotation
          End Site
          {
            OFFSET -1.0 -1.0 0.0
          }
        }
      }
    }
  }
}
MOTION
Frames:	6
Frame Time:	0.0333333
74.1049 120.19 58.0648 -59.7374 -0.152249 -82.9971 -16.1065 14.3628 25.093 24.4081 -0.592108 -0.946571 2.7794 1.93418e-006 1.65929e-005 -8.7277 22.4003 105.153 -27.1463 17.0306 59.4751 -27.0735 -11.6158 -4.9766 -132.919 -7.3168 -116.697 176.847 11.7253 97.2026 -13.7054 11.9359 43.9807 -5.48944 -6.86837 -0.26335 -139.234 -68.2695 -129.311 -23.508 4.63459e-006 -5.90926e-006 30.0573 -7.70712 -4.27794 119.919 18.1411 -68.3149 -11.9647 -5.8553 1.00769 -37.5427 -27.5395 -16.6943 -90 0 0 -143.184 28.1482 -59.1955 -22.4692 -5.01634 -0.503922 -24.9263 -14.8557 -13.8493 -90 0 0
72.1943 123.546 61.3353 -53.2347 -7.13578 -74.3627 -25.4425 15.22 21.4093 22.5975 -0.476232 -0.788807 2.7794 1.93418e-006 1.65929e-005 -7.53891 23.881 99.1771 -14.0871 18.583 71.6976 -26.594 -11.7286 -4.76781 63.5081 -78.5061 112.416 176.016 14.2389 96.7811 -1.79384 14.1554 46.7077 -4.75893 -6.81455 -0.222881 -141.477 -52.1858 -135.539 -23.508 4.63459e-006 -5.90926e-006 26.3284 -12.8965 -7.54844 95.3497 9.84634 -58.3158 -27.9515 -5.0443 -0.748018 -24.9278 -14.6587 -13.3861 -90 0 0 -141 24.4014 -64.5142 -15.5012 -5.38437 0.575237 -20.3 -18.0584 -14.9714 -90 0 0
70.5792 126.723 64.3875 -46.3221 -9.03591 -65.4493 -29.6544 12.6476 14.6018 21.2675 -0.394333 -0.67062 2.7794 1.93418e-006 1.65929e-005 -7.8868 28.071 96.7502 -4.19364 18.409 65.6142 -25.5608 -11.9652 -4.31515 -179.703 -67.54 -167.105 175.334 14.8673 98.1909 4.01386 18.4796 43.1051 -2.57498 -6.64527 -0.117319 -143.799 -50.4595 -139.397 -23.508 4.63459e-006 -5.90926e-006 25.9598 -13.2192 -8.2103 76.5958 3.18522 -49.9992 -37.0717 -4.54169 -0.95141 -16.2 -13.8492 -6.82762 -90 0 0 -134.479 19.6949 -66.575 -9.97141 -5.63148 1.44503 -16.505 -23.0247 -12.0185 -90 0 0
68.2834 129.398 67.7109 -40.799 -9.16683 -56.0227 -32.3676 12.1681 7.17959 20.714 -0.361057 -0.620908 2.7794 1.93418e-006 1.65929e-005 -5.67785 28.5256 90.5719 14.6647 14.4215 52.8319 -27.2919 -11.5639 -5.07154 143.357 -75.1444 169.297 174.142 16.8367 99.2888 5.9814 23.0384 38.2816 0.00490973 -4.51366 0.0519777 -148.589 -50.0893 -148.837 -23.508 4.63459e-006 -5.90926e-006 26.8516 -13.0152 -7.98253 59.9428 0.252041 -46.3509 -36.8159 -4.54408 -0.983798 -11.3204 -16.6642 -3.20671 -90 0 0 -122.449 15.047 -65.2921 -8.93922 -5.66206 1.59195 -17.6716 -26.6875 -10.2674 -90 0 0
64.7183 130.598 71.113 -35.0131 -9.11658 -44.6742 -32.5768 12.1565 -3.05897 19.188 -0.271865 -0.482169 2.7794 1.93418e-006 1.65929e-005 -3.31884 30.7684 84.0449 20.7801 6.87656 35.541 -28.3084 -11.3164 -5.51198 -170.656 -63.3964 -161.462 173.655 18.8377 98.3186 11.6583 22.6086 32.6796 0.00291839 -5.70937 0.0199887 -140.843 -51.7318 -147.931 -23.508 4.63459e-006 -5.90926e-006 25.5437 -11.2651 -7.84584 43.9379 1.53372 -47.8724 -32.1742 -4.77434 -0.727436 -11.6186 -14.8494 -5.29749 -90 0 0 -111.986 12.2485 -60.6089 -11.1039 -5.63254 1.24139 -18.6865 -25.7237 -7.46089 -90 0 0
60.2256 129.885 74.4149 -28.8629 -7.45979 -34.0241 -30.3147 9.8549 -12.952 18.1489 -0.21326 -0.386374 2.7794 1.93418e-006 1.65929e-005 1.15432 29.5318 73.2618 21.7522 2.61458 18.3394 -31.628 -10.4529 -6.9193 -163.664 -59.9785 -156.812 173.918 20.5023 96.0408 19.8526 18.9452 26.7129 -4.49314 -6.79408 -0.209639 -135.947 -48.8451 -141.494 -23.508 4.63459e-006 -5.90926e-006 18.7929 -8.51713 -8.47819 30.9176 7.57672 -51.026 -29.055 -4.9046 -0.618054 -14.5922 -17.0682 -6.70567 -90 0 0 -101.964 8.49076 -56.5562 -17.049 -5.51907 0.317815 -14.6528 -25.0733 -1.83062 -90 0 0
